<?xml version="1.0" encoding="UTF-8" standalone="no"?>
<!-- Created with Inkscape (http://www.inkscape.org/) -->

<svg
   xmlns:dc="http://purl.org/dc/elements/1.1/"
   xmlns:cc="http://creativecommons.org/ns#"
   xmlns:rdf="http://www.w3.org/1999/02/22-rdf-syntax-ns#"
   xmlns:svg="http://www.w3.org/2000/svg"
   xmlns="http://www.w3.org/2000/svg"
   xmlns:sodipodi="http://sodipodi.sourceforge.net/DTD/sodipodi-0.dtd"
   xmlns:inkscape="http://www.inkscape.org/namespaces/inkscape"
   width="210mm"
   height="297mm"
   viewBox="0 0 210 297"
   version="1.1"
   id="svg8"
   inkscape:version="0.92.5 (2060ec1f9f, 2020-04-08)"
   sodipodi:docname="dessin-2.svg">
  <defs
     id="defs2">
    <filter
       inkscape:collect="always"
       style="color-interpolation-filters:sRGB"
       id="filter1020"
       x="-0.01061539"
       width="1.0212308"
       y="-0.013799991"
       height="1.0276">
      <feGaussianBlur
         inkscape:collect="always"
         stdDeviation="0.076067656"
         id="feGaussianBlur1022" />
    </filter>
  </defs>
  <sodipodi:namedview
     id="base"
     pagecolor="#ffffff"
     bordercolor="#666666"
     borderopacity="1.0"
     inkscape:pageopacity="0.0"
     inkscape:pageshadow="2"
     inkscape:zoom="2.0662698"
     inkscape:cx="364.78415"
     inkscape:cy="621.5835"
     inkscape:document-units="mm"
     inkscape:current-layer="layer1"
     showgrid="false"
     inkscape:window-width="1366"
     inkscape:window-height="704"
     inkscape:window-x="0"
     inkscape:window-y="27"
     inkscape:window-maximized="1" />
  <metadata
     id="metadata5">
    <rdf:RDF>
      <cc:Work
         rdf:about="">
        <dc:format>image/svg+xml</dc:format>
        <dc:type
           rdf:resource="http://purl.org/dc/dcmitype/StillImage" />
        <dc:title />
      </cc:Work>
    </rdf:RDF>
  </metadata>
  <g
     inkscape:label="Calque 1"
     inkscape:groupmode="layer"
     id="layer1">
    <g
       id="queue"
       inkscape:label="#g994">
      <path
         sodipodi:nodetypes="cccccccccccccccccccc"
         inkscape:connector-curvature="0"
         id="path16"
         d="m 99.785715,185.04358 0.755945,22.67857 -0.75595,17.76488 -1.498472,10.32949 -4.171168,8.19134 -8.315475,9.82738 -1.889882,7.18155 1.133928,4.91369 3.401787,4.91369 7.559522,1.88988 10.58333,-4.53571 8.69346,-11.71726 3.06966,-9.48183 1.46605,-10.55091 -0.37797,-21.92262 -3.40179,-28.72619 -3.77976,-23.8125 -1.88988,-12.47322 -14.741076,1.13393 z"
         style="fill:#1a1a1a;stroke:#000000;stroke-width:0.26458332px;stroke-linecap:butt;stroke-linejoin:miter;stroke-opacity:1" />
    </g>
    <path
       style="opacity:1;fill:#1a1a1a;fill-opacity:1;stroke:#000000;stroke-width:0.65142554;stroke-linecap:butt;stroke-linejoin:round;stroke-miterlimit:4;stroke-dasharray:none;stroke-dashoffset:0;stroke-opacity:1"
       d="m 78.844516,74.437945 11.425769,-5.617872 13.296655,-2.143367 12.89575,1.184035 13.4303,6.529425 5.61266,15.554906 2.40542,20.365818 -2.40543,47.41474 -62.808323,0.6301 -3.474504,-48.04484 3.0736,-20.475563 z"
       id="rect827"
       inkscape:connector-curvature="0"
       sodipodi:nodetypes="cccccccccccc" />
    <path
       style="opacity:1;fill:#f2f2f2;fill-opacity:1;stroke:#000000;stroke-width:0.60000002;stroke-linecap:butt;stroke-linejoin:round;stroke-miterlimit:4;stroke-dasharray:none;stroke-dashoffset:0;stroke-opacity:1"
       d="m 86.060791,92.874582 3.312833,-4.204123 4.371167,-3.145789 10.891239,-2.539061 11.1585,2.539061 4.23753,3.145789 3.1792,4.204123 1.33098,9.287648 0.27264,9.28765 -0.27264,9.81681 -1.33098,8.75847 -3.5801,4.33776 -4.63844,3.27943 -10.35669,2.80632 -10.62397,-2.53905 -4.504801,-3.41306 -3.446468,-4.4714 -1.25453,-9.37818 -0.349087,-9.1971 0.349087,-9.28765 z"
       id="rect830"
       inkscape:connector-curvature="0"
       sodipodi:nodetypes="ccccccccccccccccccccc" />
    <path
       style="opacity:1;fill:#1a1a1a;fill-opacity:1;stroke:#000000;stroke-width:0.60000002;stroke-linecap:butt;stroke-linejoin:round;stroke-miterlimit:4;stroke-dasharray:none;stroke-dashoffset:0;stroke-opacity:1"
       d="m 102.63151,78.816414 -9.454949,-4.752984 -9.83636,-6.281094 -7.719694,-7.339428 -0.80946,-9.508167 7.761386,-24.396316 6.585755,-4.334243 26.434502,-1.010158 7.15728,3.551506 9.3819,22.938044 0.89096,9.544222 -4.21289,4.876916 -6.91143,6.532018 -16.22894,10.061976 z"
       id="path833"
       inkscape:connector-curvature="0"
       sodipodi:nodetypes="ccccccccccccccc" />
    <circle
       style="opacity:1;fill:#000000;fill-opacity:1;stroke:#000000;stroke-width:0.60000002;stroke-linecap:butt;stroke-linejoin:round;stroke-miterlimit:4;stroke-dasharray:none;stroke-dashoffset:0;stroke-opacity:1"
       id="path819"
       cx="105.30419"
       cy="111.38132"
       r="0.93544334" />
    <path
       style="opacity:1;fill:#1a1a1a;fill-opacity:1;stroke:#000000;stroke-width:0.60000002;stroke-linecap:butt;stroke-linejoin:round;stroke-miterlimit:4;stroke-dasharray:none;stroke-dashoffset:0;stroke-opacity:1"
       d="m 89.668928,161.09346 -10.100739,5.01169 -8.219225,-1.81415 -6.678298,-9.20057 4.379562,-9.50771 7.321765,-4.55631 11.938985,3.68905 2.04535,10.26614 z"
       id="path821"
       inkscape:connector-curvature="0"
       sodipodi:nodetypes="ccccccccc" />
    <path
       style="opacity:1;fill:#1a1a1a;fill-opacity:1;stroke:#000000;stroke-width:0.60000002;stroke-linecap:butt;stroke-linejoin:round;stroke-miterlimit:4;stroke-dasharray:none;stroke-dashoffset:0;stroke-opacity:1"
       d="m 117.6844,161.56436 10.10073,5.01169 8.21923,-1.81414 6.6783,-9.20058 -4.37956,-9.5077 -7.32177,-4.55632 -11.93898,3.68905 -2.04535,10.26614 z"
       id="path821-3"
       inkscape:connector-curvature="0"
       sodipodi:nodetypes="ccccccccc" />
    <path
       style="fill:#1a1a1a;stroke:#000000;stroke-width:0.26458332px;stroke-linecap:butt;stroke-linejoin:miter;stroke-opacity:1"
       d="M 80.508929,36.95238 77.674107,12.383927 95.061012,22.778273 Z"
       id="path842"
       inkscape:connector-curvature="0" />
    <path
       style="fill:#1a1a1a;stroke:#000000;stroke-width:0.26458332px;stroke-linecap:butt;stroke-linejoin:miter;stroke-opacity:1"
       d="M 126.45975,36.558623 129.29457,11.99017 111.90766,22.384516 Z"
       id="path842-6"
       inkscape:connector-curvature="0" />
    <circle
       style="opacity:1;fill:#f2f2f2;fill-opacity:1;stroke:#000000;stroke-width:0.60000002;stroke-linecap:butt;stroke-linejoin:round;stroke-miterlimit:4;stroke-dasharray:none;stroke-dashoffset:0;stroke-opacity:1"
       id="path876"
       cx="92.747894"
       cy="43.628487"
       r="9.8889723" />
    <circle
       style="opacity:1;fill:#f2f2f2;fill-opacity:1;stroke:#000000;stroke-width:0.60000002;stroke-linecap:butt;stroke-linejoin:round;stroke-miterlimit:4;stroke-dasharray:none;stroke-dashoffset:0;stroke-opacity:1"
       id="path876-5"
       cx="114.39137"
       cy="43.895756"
       r="9.8889723" />
    <g
       id="pupilles"
       inkscape:label="#g914">
      <path
         sodipodi:nodetypes="ccccccccc"
         inkscape:connector-curvature="0"
         id="path893"
         d="m 94.68304,43.755951 -0.833231,6.738612 -1.05665,1.387876 -1.05665,-1.387878 -0.833075,-6.843644 0.833075,-6.633576 1.05665,-1.387878 1.05665,1.387876 z"
         style="opacity:1;fill:#000000;fill-opacity:1;stroke:#000000;stroke-width:0.60000002;stroke-linecap:butt;stroke-linejoin:round;stroke-miterlimit:4;stroke-dasharray:none;stroke-dashoffset:0;stroke-opacity:1" />
      <path
         sodipodi:nodetypes="ccccccccc"
         inkscape:connector-curvature="0"
         id="path893-3"
         d="m 116.41659,43.944939 -0.83323,6.738613 -1.05665,1.387876 -1.05665,-1.387878 -0.83308,-6.843645 0.83308,-6.633576 1.05665,-1.387878 1.05665,1.387876 z"
         style="opacity:1;fill:#000000;fill-opacity:1;stroke:#000000;stroke-width:0.60000002;stroke-linecap:butt;stroke-linejoin:round;stroke-miterlimit:4;stroke-dasharray:none;stroke-dashoffset:0;stroke-opacity:1" />
    </g>
    <path
       style="fill:#ececec;stroke:#000000;stroke-width:0.26458332px;stroke-linecap:butt;stroke-linejoin:miter;stroke-opacity:1"
       d="m 79.563988,56.701635 9.638393,0.66146 8.315475,-1.322917 5.764134,-1.984377 5.19718,2.173363 5.85863,1.133931 7.37053,-0.755955 6.89807,-1.039434 -5.38616,6.52009 -10.58334,7.370535 -7.74851,4.157739 h -3.21279 l -7.748518,-3.590774 -9.449403,-7.370535 z"
       id="path916"
       inkscape:connector-curvature="0"
       sodipodi:nodetypes="ccccccccccccccc" />
    <path
       style="fill:#000000;stroke:#000000;stroke-width:0.26458332px;stroke-linecap:butt;stroke-linejoin:miter;stroke-opacity:1"
       d="m 92.274802,62.938709 3.274054,3.80859 5.278574,2.605879 2.73951,0.334086 3.4745,-0.868626 3.0736,-1.536798 3.86256,-3.83152 -4.39709,2.027449 -2.77866,0.864364 -3.23491,0.535025 -3.40768,-0.463944 -3.74178,-1.26953 z"
       id="path918"
       inkscape:connector-curvature="0"
       sodipodi:nodetypes="ccccccccccccc" />
    <circle
       style="opacity:1;fill:#000000;fill-opacity:1;stroke:#000000;stroke-width:0.60000002;stroke-linecap:butt;stroke-linejoin:round;stroke-miterlimit:4;stroke-dasharray:none;stroke-dashoffset:0;stroke-opacity:1"
       id="path920"
       cx="102.93218"
       cy="55.956295"
       r="2.03793" />
    <path
       style="fill:#000000;stroke:#000000;stroke-width:0.20850623px;stroke-linecap:butt;stroke-linejoin:miter;stroke-opacity:1"
       d="m 106.36991,57.327153 3.99271,0.991634 3.2322,0.233328 3.32726,-0.291659 0.0951,0.583315 -4.75323,0.291657 -3.32725,-0.40832 -3.04207,-0.933304 z"
       id="path924"
       inkscape:connector-curvature="0" />
    <path
       style="fill:#000000;stroke:#000000;stroke-width:0.20850624px;stroke-linecap:butt;stroke-linejoin:miter;stroke-opacity:1"
       d="m 106.13724,58.808874 3.835,1.489234 3.17664,0.640731 3.33741,0.132007 0.0205,0.590662 -4.7519,-0.312575 -3.24876,-0.82635 -2.89941,-1.310998 z"
       id="path924-5"
       inkscape:connector-curvature="0" />
    <path
       style="fill:#000000;stroke:#000000;stroke-width:0.20850624px;stroke-linecap:butt;stroke-linejoin:miter;stroke-opacity:1"
       d="m 99.395547,57.182109 -3.99271,0.991634 -3.2322,0.233328 -3.32726,-0.291659 -0.0951,0.583315 4.75323,0.291657 3.32725,-0.40832 3.04207,-0.933304 z"
       id="path924-6"
       inkscape:connector-curvature="0" />
    <path
       style="fill:#000000;stroke:#000000;stroke-width:0.20850626px;stroke-linecap:butt;stroke-linejoin:miter;stroke-opacity:1"
       d="m 99.628217,58.66383 -3.835,1.489234 -3.17664,0.640731 -3.33741,0.132007 -0.0205,0.590662 4.7519,-0.312575 3.24876,-0.82635 2.899413,-1.310998 z"
       id="path924-5-2"
       inkscape:connector-curvature="0" />
    <path
       style="fill:#f9f9f9;stroke:#000000;stroke-width:0.26458332px;stroke-linecap:butt;stroke-linejoin:miter;stroke-opacity:1"
       d="m 68.988947,157.95303 2.271789,-3.24065 0.601358,0.40091 -2.07134,3.80859 z"
       id="path961"
       inkscape:connector-curvature="0" />
    <path
       style="fill:#f9f9f9;stroke:#000000;stroke-width:0.26458332px;stroke-linecap:butt;stroke-linejoin:miter;stroke-opacity:1"
       d="m 71.761868,160.95981 1.971111,-4.71063 0.467723,0.30068 -1.670434,5.21176 z"
       id="path963"
       inkscape:connector-curvature="0" />
    <path
       style="fill:#f9f9f9;stroke:#000000;stroke-width:0.26458332px;stroke-linecap:butt;stroke-linejoin:miter;stroke-opacity:1"
       d="m 75.904544,157.05099 -1.23612,5.44562 0.601356,0.36749 1.202713,-5.44561 z"
       id="path965"
       inkscape:connector-curvature="0" />
    <path
       style="fill:#f9f9f9;stroke:#000000;stroke-width:0.32280165px;stroke-linecap:butt;stroke-linejoin:miter;stroke-opacity:1"
       d="m 77.8889,158.08666 -0.447555,5.21176 0.895112,0.33408 0.248645,-5.61266 z"
       id="path967"
       inkscape:connector-curvature="0" />
    <path
       style="fill:#f2f2f2;stroke:#000000;stroke-width:0.26458332px;stroke-linecap:butt;stroke-linejoin:miter;stroke-opacity:1"
       d="m 137.89992,158.51417 -2.27179,-3.24065 -0.60135,0.40091 2.07134,3.80859 z"
       id="path961-9"
       inkscape:connector-curvature="0" />
    <path
       style="fill:#f2f2f2;stroke:#000000;stroke-width:0.26458332px;stroke-linecap:butt;stroke-linejoin:miter;stroke-opacity:1"
       d="m 135.127,161.52095 -1.97111,-4.71063 -0.46772,0.30068 1.67043,5.21176 z"
       id="path963-1"
       inkscape:connector-curvature="0" />
    <path
       style="fill:#f2f2f2;stroke:#000000;stroke-width:0.26458332px;stroke-linecap:butt;stroke-linejoin:miter;stroke-opacity:1"
       d="m 130.98433,157.61213 1.23612,5.44562 -0.60136,0.36749 -1.20271,-5.44561 z"
       id="path965-2"
       inkscape:connector-curvature="0" />
    <path
       style="fill:#f2f2f2;stroke:#000000;stroke-width:0.32280165px;stroke-linecap:butt;stroke-linejoin:miter;stroke-opacity:1"
       d="m 128.99997,158.6478 0.44756,5.21176 -0.89512,0.33408 -0.24864,-5.61266 z"
       id="path967-7"
       inkscape:connector-curvature="0" />
    <g
       id="aiguille2">
      <path
         inkscape:label="#path996"
         sodipodi:nodetypes="cccccc"
         inkscape:connector-curvature="0"
         id="path234"
         d="m 105.03692,110.71314 14.83347,-0.90203 1.67043,0.93544 -1.5368,1.13589 -15.10073,-0.10022 z"
         style="fill:#000000;stroke:#000000;stroke-width:0.26458332px;stroke-linecap:butt;stroke-linejoin:miter;stroke-opacity:1" />
    </g>
    <g
       id="aiguille1"
       inkscape:label="#g1119">
      <path
         sodipodi:nodetypes="cccccc"
         inkscape:connector-curvature="0"
         id="path998"
         d="m 104.84184,110.77996 -0.16704,-8.78649 0.60136,-1.23612 0.66817,1.23612 -0.23386,8.78649 z"
         style="fill:#000000;stroke:#000000;stroke-width:0.26458332px;stroke-linecap:butt;stroke-linejoin:miter;stroke-opacity:1" />
    </g>
    <g
       aria-label="12"
       style="font-style:normal;font-variant:normal;font-weight:normal;font-stretch:normal;font-size:10.58333302px;line-height:1.25;font-family:Gubbi;-inkscape-font-specification:Gubbi;letter-spacing:0px;word-spacing:0px;fill:#000000;fill-opacity:1;stroke:none;stroke-width:0.26458332;filter:url(#filter1020)"
       id="text1002">
      <path
         d="m 103.50943,89.306007 h -1.86725 V 89.2061 q 0.35829,-0.01723 0.46854,-0.08268 0.17225,-0.106798 0.17225,-0.444417 v -3.06958 q 0,-0.316949 -0.22393,-0.316949 -0.0792,0 -0.46164,0.148139 v -0.09991 l 1.22301,-0.613227 0.0482,0.01378 v 4.065213 q 0,0.241156 0.12747,0.320393 0.13091,0.07924 0.51332,0.07924 z"
         style="font-style:normal;font-variant:normal;font-weight:normal;font-stretch:normal;font-size:7.05555534px;font-family:Gubbi;-inkscape-font-specification:Gubbi;stroke-width:0.26458332"
         id="path1113"
         inkscape:connector-curvature="0" />
      <path
         d="m 108.38079,88.375832 -0.37552,0.930175 h -2.63894 v -0.08613 l 1.1989,-1.274685 q 0.88194,-0.940511 0.88194,-1.743219 0,-0.361735 -0.18259,-0.620117 -0.25149,-0.354845 -0.78204,-0.354845 -0.40307,0 -0.65801,0.303169 -0.14469,0.16881 -0.31006,0.571886 l -0.14125,-0.02756 q 0.1447,-0.706245 0.57189,-1.054199 0.36173,-0.292833 0.86127,-0.292833 0.48576,0 0.84405,0.327284 0.38241,0.351399 0.38241,0.892279 0,0.747586 -0.86472,1.650201 l -1.14377,1.192003 h 1.62953 q 0.2067,0 0.3135,-0.06201 0.14125,-0.08957 0.32728,-0.389295 z"
         style="font-style:normal;font-variant:normal;font-weight:normal;font-stretch:normal;font-size:7.05555534px;font-family:Gubbi;-inkscape-font-specification:Gubbi;stroke-width:0.26458332"
         id="path1115"
         inkscape:connector-curvature="0" />
    </g>
    <text
       xml:space="preserve"
       style="font-style:normal;font-variant:normal;font-weight:normal;font-stretch:normal;font-size:7.05555534px;line-height:1.25;font-family:Gubbi;-inkscape-font-specification:Gubbi;letter-spacing:0px;word-spacing:0px;fill:#000000;fill-opacity:1;stroke:none;stroke-width:0.26458332"
       x="102.36423"
       y="135.1683"
       id="text1026"><tspan
         sodipodi:role="line"
         id="tspan1024"
         x="102.36423"
         y="139.92307"
         style="font-style:normal;font-variant:normal;font-weight:normal;font-stretch:normal;font-size:7.05555534px;font-family:Gubbi;-inkscape-font-specification:Gubbi;stroke-width:0.26458332" /></text>
    <text
       xml:space="preserve"
       style="font-style:normal;font-variant:normal;font-weight:normal;font-stretch:normal;font-size:10.58333302px;line-height:1.25;font-family:Fipps;-inkscape-font-specification:Fipps;letter-spacing:0px;word-spacing:0px;fill:#000000;fill-opacity:1;stroke:none;stroke-width:0.26458332"
       x="106.02439"
       y="132.07317"
       id="text1030"><tspan
         sodipodi:role="line"
         id="tspan1028"
         x="106.02439"
         y="141.33359"
         style="stroke-width:0.26458332" /></text>
    <g
       aria-label="6"
       style="font-style:normal;font-variant:normal;font-weight:normal;font-stretch:normal;font-size:7.05555534px;line-height:1.25;font-family:Gubbi;-inkscape-font-specification:Gubbi;letter-spacing:0px;word-spacing:0px;fill:#000000;fill-opacity:1;stroke:none;stroke-width:0.26458332"
       id="text1034">
      <path
         d="m 105.92777,136.23854 q 0,-1.37803 -0.9095,-1.37803 -0.41686,0 -0.64079,0.22048 -0.14125,0.13781 -0.14125,0.6339 0,0.81304 0.28939,1.25057 0.25838,0.39274 0.66835,0.39274 0.33762,0 0.53054,-0.27216 0.20326,-0.29628 0.20326,-0.8475 z m 0.61323,-0.26182 q 0,0.54432 -0.26872,0.96807 -0.3824,0.59945 -1.17478,0.59945 -0.64423,0 -1.0473,-0.49954 -0.45131,-0.55466 -0.45131,-1.56752 0,-1.05076 0.78548,-1.82246 0.80615,-0.79581 2.00849,-0.83027 l 0.0172,0.10336 q -0.85094,0.13436 -1.40905,0.72691 -0.49265,0.52366 -0.596,1.20579 0.28594,-0.17915 0.41341,-0.22738 0.19293,-0.0758 0.47542,-0.0758 0.55467,0 0.89573,0.36862 0.3514,0.38585 0.3514,1.05076 z"
         style="stroke-width:0.26458332"
         id="path1110"
         inkscape:connector-curvature="0" />
    </g>
    <g
       aria-label="3"
       style="font-style:normal;font-variant:normal;font-weight:normal;font-stretch:normal;font-size:7.05555534px;line-height:1.25;font-family:Gubbi;-inkscape-font-specification:Gubbi;letter-spacing:0px;word-spacing:0px;fill:#000000;fill-opacity:1;stroke:none;stroke-width:0.26458332"
       id="text1038">
      <path
         d="m 123.29825,111.51847 q 0,0.70969 -0.53744,1.14377 -0.52021,0.41685 -1.3367,0.41685 -0.24115,0 -0.44097,-0.062 -0.31695,-0.0965 -0.31695,-0.32039 0,-0.23427 0.26872,-0.23427 0.14125,0 0.44786,0.18604 0.31006,0.18259 0.52021,0.18259 0.44098,0 0.68558,-0.32729 0.21704,-0.28939 0.21704,-0.70969 0,-0.2067 -0.093,-0.42374 -0.13436,-0.31695 -0.42375,-0.46509 -0.32728,-0.17226 -0.88194,-0.15503 v -0.0861 q 1.1231,-0.37207 1.1231,-1.15066 0,-0.27905 -0.18259,-0.47887 -0.21015,-0.22393 -0.565,-0.22393 -0.60633,0 -0.99563,0.71658 l -0.10335,-0.0207 q 0.33762,-1.09899 1.33325,-1.09899 0.56844,0 0.85438,0.3514 0.20327,0.2515 0.20327,0.55811 0,0.54088 -0.63735,0.95429 0.36863,0.16537 0.53744,0.33762 0.32384,0.33417 0.32384,0.90951 z"
         style="stroke-width:0.26458332"
         id="path1107"
         inkscape:connector-curvature="0" />
    </g>
    <g
       aria-label="9"
       style="font-style:normal;font-variant:normal;font-weight:normal;font-stretch:normal;font-size:7.05555534px;line-height:1.25;font-family:Gubbi;-inkscape-font-specification:Gubbi;letter-spacing:0px;word-spacing:0px;fill:#000000;fill-opacity:1;stroke:none;stroke-width:0.26458332"
       id="text1042">
      <path
         d="m 88.39561,111.16187 v -0.26183 q 0,-1.72255 -0.90606,-1.72255 -0.71658,0 -0.71658,1.18511 0,0.50643 0.158475,0.84405 0.220486,0.46165 0.699354,0.46165 0.36518,0 0.651123,-0.23083 0.113688,-0.093 0.113688,-0.2756 z m 0.647678,-0.27561 q 0,1.1231 -0.709689,1.91547 -0.751031,0.83716 -1.998156,0.91984 l -0.01722,-0.14125 q 1.033528,-0.16881 1.62264,-1.02319 0.296278,-0.43064 0.423746,-0.95085 l -0.0069,-0.0207 q -0.444417,0.37207 -0.992187,0.37207 -0.620117,0 -0.954292,-0.45819 -0.268717,-0.37207 -0.268717,-0.88195 0,-0.69246 0.382406,-1.15066 0.396185,-0.47887 1.036973,-0.47887 0.633898,0 1.054199,0.52366 0.427192,0.53743 0.427192,1.37459 z"
         style="stroke-width:0.26458332"
         id="path1104"
         inkscape:connector-curvature="0" />
    </g>
    <g
       aria-label="10"
       style="font-style:normal;font-variant:normal;font-weight:normal;font-stretch:normal;font-size:7.05555534px;line-height:1.25;font-family:Gubbi;-inkscape-font-specification:Gubbi;letter-spacing:0px;word-spacing:0px;fill:#000000;fill-opacity:1;stroke:none;stroke-width:0.26458332"
       id="text1046">
      <path
         d="m 88.540706,103.77439 h -1.867242 v -0.0999 q 0.35829,-0.0172 0.468533,-0.0827 0.172255,-0.1068 0.172255,-0.44442 v -3.06958 q 0,-0.316945 -0.223931,-0.316945 -0.07924,0 -0.461643,0.148139 v -0.09991 l 1.223009,-0.613227 0.04823,0.01378 v 4.065213 q 0,0.24116 0.127469,0.3204 0.130914,0.0792 0.513319,0.0792 z"
         style="stroke-width:0.26458332"
         id="path1099"
         inkscape:connector-curvature="0" />
      <path
         d="m 92.767838,101.53163 q 0,-2.160071 -0.881944,-2.160071 -0.881945,0 -0.881945,2.160071 0,2.15663 0.881945,2.15663 0.881944,0 0.881944,-2.15663 z m 0.651123,0 q 0,0.84061 -0.299723,1.4745 -0.406521,0.86128 -1.233344,0.86128 -0.823378,0 -1.229899,-0.86128 -0.299724,-0.63389 -0.299724,-1.4745 0,-0.83026 0.299724,-1.46761 0.409966,-0.868161 1.229899,-0.868161 0.823377,0 1.233344,0.868161 0.299723,0.63735 0.299723,1.46761 z"
         style="stroke-width:0.26458332"
         id="path1101"
         inkscape:connector-curvature="0" />
    </g>
    <g
       aria-label="11"
       style="font-style:normal;font-variant:normal;font-weight:normal;font-stretch:normal;font-size:7.05555534px;line-height:1.25;font-family:Gubbi;-inkscape-font-specification:Gubbi;letter-spacing:0px;word-spacing:0px;fill:#000000;fill-opacity:1;stroke:none;stroke-width:0.26458332"
       id="text1050">
      <path
         d="m 93.022411,93.402435 h -1.867242 v -0.09991 q 0.35829,-0.01723 0.468533,-0.08268 0.172255,-0.106798 0.172255,-0.444417 v -3.06958 q 0,-0.316949 -0.223931,-0.316949 -0.07924,0 -0.461643,0.148139 v -0.09991 l 1.223009,-0.613227 0.04823,0.01378 v 4.065212 q 0,0.241157 0.127469,0.320394 0.130913,0.07924 0.513319,0.07924 z"
         style="stroke-width:0.26458332"
         id="path1094"
         inkscape:connector-curvature="0" />
      <path
         d="m 97.256433,93.402435 h -1.867242 v -0.09991 q 0.35829,-0.01723 0.468533,-0.08268 0.172255,-0.106798 0.172255,-0.444417 v -3.06958 q 0,-0.316949 -0.223931,-0.316949 -0.07924,0 -0.461643,0.148139 v -0.09991 l 1.223009,-0.613227 0.04823,0.01378 v 4.065212 q 0,0.241157 0.127469,0.320394 0.130913,0.07924 0.513319,0.07924 z"
         style="stroke-width:0.26458332"
         id="path1096"
         inkscape:connector-curvature="0" />
    </g>
    <g
       aria-label="1"
       style="font-style:normal;font-variant:normal;font-weight:normal;font-stretch:normal;font-size:7.05555534px;line-height:1.25;font-family:Gubbi;-inkscape-font-specification:Gubbi;letter-spacing:0px;word-spacing:0px;fill:#000000;fill-opacity:1;stroke:none;stroke-width:0.26458332"
       id="text1054">
      <path
         d="m 116.45533,92.634148 h -1.86724 v -0.09991 q 0.35829,-0.01723 0.46853,-0.08268 0.17226,-0.106798 0.17226,-0.444418 v -3.06958 q 0,-0.316948 -0.22393,-0.316948 -0.0792,0 -0.46164,0.148139 v -0.09991 l 1.223,-0.613227 0.0482,0.01378 v 4.065213 q 0,0.241156 0.12746,0.320394 0.13092,0.07924 0.51332,0.07924 z"
         style="stroke-width:0.26458332"
         id="path1091"
         inkscape:connector-curvature="0" />
    </g>
    <g
       aria-label="2"
       style="font-style:normal;font-variant:normal;font-weight:normal;font-stretch:normal;font-size:7.05555534px;line-height:1.25;font-family:Gubbi;-inkscape-font-specification:Gubbi;letter-spacing:0px;word-spacing:0px;fill:#000000;fill-opacity:1;stroke:none;stroke-width:0.26458332"
       id="text1058">
      <path
         d="m 122.34268,101.43568 -0.37552,0.93017 h -2.63894 v -0.0861 l 1.19889,-1.27468 q 0.88194,-0.94051 0.88194,-1.743219 0,-0.361735 -0.18259,-0.620117 -0.25149,-0.354845 -0.78203,-0.354845 -0.40308,0 -0.65801,0.303169 -0.1447,0.168809 -0.31006,0.571886 l -0.14125,-0.02756 q 0.14469,-0.706245 0.57188,-1.054199 0.36174,-0.292833 0.86128,-0.292833 0.48576,0 0.84405,0.327284 0.3824,0.351399 0.3824,0.892279 0,0.747586 -0.86472,1.650205 l -1.14377,1.192 h 1.62953 q 0.20671,0 0.3135,-0.062 0.14125,-0.0896 0.32729,-0.3893 z"
         style="stroke-width:0.26458332"
         id="path1088"
         inkscape:connector-curvature="0" />
    </g>
    <g
       aria-label="4"
       style="font-style:normal;font-variant:normal;font-weight:normal;font-stretch:normal;font-size:7.05555534px;line-height:1.25;font-family:Gubbi;-inkscape-font-specification:Gubbi;letter-spacing:0px;word-spacing:0px;fill:#000000;fill-opacity:1;stroke:none;stroke-width:0.26458332"
       id="text1062">
      <path
         d="m 120.20955,122.05442 v -2.29788 h -0.0207 l -1.60886,2.29788 z m 1.22301,0 v 0.43064 h -0.69935 v 1.13688 h -0.52366 v -1.13688 h -1.89824 v -0.43064 l 2.12562,-3.01101 h 0.29628 v 3.01101 z"
         style="stroke-width:0.26458332"
         id="path1085"
         inkscape:connector-curvature="0" />
    </g>
    <g
       aria-label="5"
       style="font-style:normal;font-variant:normal;font-weight:normal;font-stretch:normal;font-size:7.05555534px;line-height:1.25;font-family:Gubbi;-inkscape-font-specification:Gubbi;letter-spacing:0px;word-spacing:0px;fill:#000000;fill-opacity:1;stroke:none;stroke-width:0.26458332"
       id="text1066">
      <path
         d="m 116.15559,129.12483 -0.25494,0.59944 q -0.0138,0.0689 -0.15503,0.0689 h -1.32636 l -0.28939,0.57189 q 0.58567,0.1068 0.84405,0.19982 0.47542,0.17225 0.74414,0.49953 0.23082,0.2825 0.29972,0.5271 0.0586,0.20671 0.0586,0.62357 0,0.68212 -0.50643,1.14377 -0.51676,0.47198 -1.31258,0.47198 -0.39274,0 -0.62012,-0.11025 -0.22737,-0.11024 -0.22737,-0.29283 0,-0.26872 0.2756,-0.26872 0.22049,0 0.50988,0.2136 0.28938,0.21015 0.46853,0.21015 0.36863,0 0.6339,-0.29283 0.30661,-0.33762 0.30661,-0.91295 0,-0.72692 -0.69246,-1.11277 -0.51677,-0.28594 -1.24024,-0.32039 -0.0655,-0.003 -0.0448,-0.0861 l 0.74069,-1.60886 h 1.41249 q 0.18604,0 0.31695,-0.16881 z"
         style="stroke-width:0.26458332"
         id="path1082"
         inkscape:connector-curvature="0" />
    </g>
    <g
       aria-label="7"
       style="font-style:normal;font-variant:normal;font-weight:normal;font-stretch:normal;font-size:7.05555534px;line-height:1.25;font-family:Gubbi;-inkscape-font-specification:Gubbi;letter-spacing:0px;word-spacing:0px;fill:#000000;fill-opacity:1;stroke:none;stroke-width:0.26458332"
       id="text1070">
      <path
         d="m 97.280153,130.13083 -1.43316,4.4235 h -0.437527 l 1.333252,-4.02731 h -1.474501 q -0.296278,0 -0.468533,0.14125 -0.110243,0.0896 -0.306613,0.40307 l -0.120579,-0.0517 0.289388,-0.69591 0.113689,-0.30662 h 2.504584 z"
         style="stroke-width:0.26458332"
         id="path1079"
         inkscape:connector-curvature="0" />
    </g>
    <g
       aria-label="8"
       style="font-style:normal;font-variant:normal;font-weight:normal;font-stretch:normal;font-size:7.05555534px;line-height:1.25;font-family:Gubbi;-inkscape-font-specification:Gubbi;letter-spacing:0px;word-spacing:0px;fill:#000000;fill-opacity:1;stroke:none;stroke-width:0.26458332"
       id="text1074">
      <path
         d="m 90.634858,124.4322 q 0,-0.34796 -0.237712,-0.60978 -0.168809,-0.18604 -0.819932,-0.65113 -0.248047,0.19637 -0.354845,0.36174 -0.18948,0.28594 -0.18948,0.69591 0,0.40997 0.220486,0.67868 0.234266,0.28595 0.633897,0.28595 0.330729,0 0.537435,-0.20327 0.210151,-0.2067 0.210151,-0.5581 z m -0.09302,-2.79397 q 0,-0.30662 -0.186035,-0.50988 -0.206706,-0.23082 -0.575331,-0.23082 -0.351399,0 -0.551215,0.22049 -0.16881,0.18948 -0.16881,0.4582 0,0.52365 0.847494,1.07831 0.285943,-0.18948 0.413411,-0.34795 0.220486,-0.27906 0.220486,-0.66835 z m 0.606337,2.63205 q 0,0.3893 -0.248047,0.68557 -0.354845,0.42375 -1.098985,0.42375 -0.589111,0 -0.954292,-0.34106 -0.330729,-0.31006 -0.330729,-0.7407 0,-0.40308 0.217041,-0.67524 0.141249,-0.17914 0.664904,-0.58566 -0.499539,-0.44098 -0.633898,-0.62012 -0.20326,-0.27905 -0.20326,-0.65801 0,-0.48576 0.409966,-0.78549 0.368625,-0.26527 0.850938,-0.26527 0.554661,0 0.881945,0.28594 0.303168,0.26872 0.303168,0.67869 0,0.40307 -0.316949,0.70624 -0.179144,0.17226 -0.592556,0.39619 0.637343,0.45131 0.868164,0.81993 0.18259,0.28939 0.18259,0.67524 z"
         style="stroke-width:0.26458332"
         id="path1076"
         inkscape:connector-curvature="0" />
    </g>
  </g>
</svg>
